<svg width="32" height="32" viewBox="0 0 32 32" fill="none" xmlns="http://www.w3.org/2000/svg"><g filter="url(#a)"><rect width="32" height="32" rx="8" fill="url(#b)"/><g filter="url(#c)"><path fill-rule="evenodd" clip-rule="evenodd" d="M7.928 5.258c-.423-.03-.77.317-.77.742v20c0 .425.346.772.77.742 5.589-.394 10-5.053 10-10.742s-4.411-10.348-10-10.742m8.718.044c-.568-.066-.944.532-.715 1.056a24.08 24.08 0 0 1 0 19.284c-.229.524.147 1.122.715 1.056 5.362-.616 9.527-5.17 9.527-10.698 0-5.527-4.165-10.082-9.527-10.698" fill="url(#d)"/></g></g><defs><linearGradient id="b" x1="16" y1="0" x2="16" y2="32" gradientUnits="userSpaceOnUse"><stop stop-color="#0EA5E9"/><stop offset="1" stop-color="#0284C7"/></linearGradient><linearGradient id="d" x1="16.666" y1="5.256" x2="16.666" y2="26.744" gradientUnits="userSpaceOnUse"><stop stop-color="#fff"/><stop offset="1" stop-color="#fff" stop-opacity=".9"/></linearGradient><filter id="a" x="0" y="0" width="32" height="33" filterUnits="userSpaceOnUse" color-interpolation-filters="sRGB"><feFlood flood-opacity="0" result="BackgroundImageFix"/><feBlend in="SourceGraphic" in2="BackgroundImageFix" result="shape"/><feColorMatrix in="SourceAlpha" values="0 0 0 0 0 0 0 0 0 0 0 0 0 0 0 0 0 0 127 0" result="hardAlpha"/><feOffset dy="1"/><feGaussianBlur stdDeviation=".5"/><feComposite in2="hardAlpha" operator="arithmetic" k2="-1" k3="1"/><feColorMatrix values="0 0 0 0 1 0 0 0 0 1 0 0 0 0 1 0 0 0 0.15 0"/><feBlend in2="shape" result="effect1_innerShadow_516_20"/></filter><filter id="c" x="3.159" y="2.256" width="27.014" height="29.488" filterUnits="userSpaceOnUse" color-interpolation-filters="sRGB"><feFlood flood-opacity="0" result="BackgroundImageFix"/><feColorMatrix in="SourceAlpha" values="0 0 0 0 0 0 0 0 0 0 0 0 0 0 0 0 0 0 127 0" result="hardAlpha"/><feOffset dy="1"/><feGaussianBlur stdDeviation="2"/><feColorMatrix values="0 0 0 0 0.0117647 0 0 0 0 0.411765 0 0 0 0 0.631373 0 0 0 0.5 0"/><feBlend in2="BackgroundImageFix" result="effect1_dropShadow_516_20"/><feBlend in="SourceGraphic" in2="effect1_dropShadow_516_20" result="shape"/><feColorMatrix in="SourceAlpha" values="0 0 0 0 0 0 0 0 0 0 0 0 0 0 0 0 0 0 127 0" result="hardAlpha"/><feOffset dy="-2"/><feGaussianBlur stdDeviation="3"/><feComposite in2="hardAlpha" operator="arithmetic" k2="-1" k3="1"/><feColorMatrix values="0 0 0 0 0.00784314 0 0 0 0 0.517647 0 0 0 0 0.780392 0 0 0 0.12 0"/><feBlend in2="shape" result="effect2_innerShadow_516_20"/></filter></defs></svg>