<svg width="16" height="16" viewBox="0 0 16 16" fill="none" xmlns="http://www.w3.org/2000/svg">
<path fill-rule="evenodd" clip-rule="evenodd" d="M6.22 4.22001C6.36062 4.07956 6.55125 4.00067 6.75 4.00067C6.94875 4.00067 7.13937 4.07956 7.28 4.22001L10.53 7.47001C10.6704 7.61064 10.7493 7.80126 10.7493 8.00001C10.7493 8.19876 10.6704 8.38939 10.53 8.53001L7.28 11.78C7.13782 11.9125 6.94977 11.9846 6.75547 11.9812C6.56117 11.9778 6.37579 11.899 6.23837 11.7616C6.10096 11.6242 6.02225 11.4388 6.01882 11.2445C6.01539 11.0502 6.08752 10.8622 6.22 10.72L8.94 8.00001L6.22 5.28001C6.07955 5.13939 6.00066 4.94876 6.00066 4.75001C6.00066 4.55126 6.07955 4.36064 6.22 4.22001Z" fill="currentColor"/>
</svg>
