<svg width="89" height="28" viewBox="0 0 89 28" fill="none" xmlns="http://www.w3.org/2000/svg">
<path d="M46.7335 16.8089H37.2406C36.9282 16.8089 36.675 16.5535 36.675 16.2384C36.675 15.9233 36.9282 15.6678 37.2406 15.6678H46.7335C47.046 15.6678 47.2992 15.9233 47.2992 16.2384C47.2992 16.5535 47.046 16.8089 46.7335 16.8089Z" fill="white"/>
<path d="M59.1962 17.3473H51.9217C51.6093 17.3473 51.356 17.0919 51.356 16.7768C51.356 16.4617 51.6093 16.2063 51.9217 16.2063H59.1962C59.5086 16.2063 59.7618 16.4617 59.7618 16.7768C59.7618 17.0919 59.5086 17.3473 59.1962 17.3473Z" fill="white"/>
<path d="M59.1962 19.0715H51.9217C51.7153 19.0784 51.5215 18.9713 51.4162 18.792C51.311 18.6128 51.311 18.3899 51.4162 18.2106C51.5215 18.0313 51.7153 17.9242 51.9217 17.9311H59.1962C59.5011 17.9413 59.7431 18.1936 59.7431 18.5013C59.7431 18.809 59.5011 19.0613 59.1962 19.0715Z" fill="white"/>
<path d="M83.8243 17.9764H78.3421C78.0372 17.9662 77.7952 17.7139 77.7952 17.4062C77.7952 17.0984 78.0372 16.8462 78.3421 16.8359H83.8243C84.0307 16.829 84.2245 16.9362 84.3298 17.1154C84.435 17.2947 84.435 17.5176 84.3298 17.6969C84.2245 17.8761 84.0307 17.9833 83.8243 17.9764Z" fill="white"/>
<path d="M76.7204 17.9764H74.1663C73.9598 17.9833 73.766 17.8761 73.6608 17.6969C73.5555 17.5176 73.5555 17.2947 73.6608 17.1154C73.766 16.9362 73.9598 16.829 74.1663 16.8359H76.7204C76.9269 16.829 77.1207 16.9362 77.2259 17.1154C77.3312 17.2947 77.3312 17.5176 77.2259 17.6969C77.1207 17.8761 76.9269 17.9833 76.7204 17.9764Z" fill="white"/>
<path d="M62.0357 17.2242C61.7233 17.2242 61.4701 16.9688 61.4701 16.6537C61.4701 16.3386 61.7233 16.0832 62.0357 16.0832C63.2019 16.083 64.3638 15.9413 65.4963 15.6609L65.5493 15.6477C65.8528 15.5728 66.159 15.7601 66.2333 16.0662C66.3076 16.3723 66.1219 16.6811 65.8184 16.7561L65.7655 16.7693C64.5448 17.0713 63.2926 17.224 62.0357 17.2242Z" fill="white"/>
<path d="M65.6839 19.4435H62.0357C61.7233 19.4435 61.4701 19.188 61.4701 18.873C61.4701 18.5579 61.7233 18.3024 62.0357 18.3024H65.6839C65.9963 18.3024 66.2495 18.5579 66.2495 18.873C66.2495 19.188 65.9963 19.4435 65.6839 19.4435Z" fill="white"/>
<path d="M59.1962 20.7962H51.9217C51.6093 20.7962 51.356 20.5408 51.356 20.2257C51.356 19.9106 51.6093 19.6552 51.9217 19.6552H59.1962C59.5086 19.6552 59.7618 19.9106 59.7618 20.2257C59.7618 20.5408 59.5086 20.7962 59.1962 20.7962Z" fill="white"/>
<path d="M69.6142 21.4918C69.5547 21.4919 69.4956 21.4824 69.4391 21.4635L67.8511 20.9414C67.5639 20.8476 67.3385 20.6207 67.2451 20.3312C67.1516 20.0416 67.2014 19.7244 67.3789 19.478L68.5825 17.8042L67.2456 17.3599C66.9492 17.2603 66.789 16.9373 66.8877 16.6383C66.9864 16.3393 67.3068 16.1777 67.6032 16.2773L69.1824 16.8076C69.4678 16.9033 69.6909 17.1304 69.783 17.4192C69.875 17.7079 69.825 18.0236 69.6484 18.2691L68.4461 19.9411L69.7886 20.3809C70.0536 20.4673 70.2168 20.7354 70.1734 21.0129C70.1299 21.2903 69.8927 21.4946 69.6142 21.4943V21.4918Z" fill="white"/>
<path d="M47.0214 25.9429H36.9529C36.6405 25.9429 36.3872 25.6874 36.3872 25.3723C36.3872 25.0573 36.6405 24.8018 36.9529 24.8018H47.0214C47.3338 24.8018 47.5871 25.0573 47.5871 25.3723C47.5871 25.6874 47.3338 25.9429 47.0214 25.9429Z" fill="white"/>
<path d="M43.6143 25.9429C43.3019 25.9429 43.0486 25.6875 43.0486 25.3724V16.2384C43.0486 15.9233 43.3019 15.6678 43.6143 15.6678C43.9267 15.6678 44.18 15.9233 44.18 16.2384V25.3724C44.1796 25.6873 43.9266 25.9425 43.6143 25.9429Z" fill="white"/>
<path d="M63.8598 25.9429C63.5475 25.9425 63.2945 25.6873 63.2941 25.3723V16.6537C63.2941 16.3386 63.5474 16.0831 63.8598 16.0831C64.1722 16.0831 64.4255 16.3386 64.4255 16.6537V25.3723C64.4251 25.6873 64.1721 25.9425 63.8598 25.9429Z" fill="white"/>
<path d="M74.6964 25.9429H74.1687C73.8563 25.9429 73.6031 25.6875 73.6031 25.3724C73.6031 25.0573 73.8563 24.8019 74.1687 24.8019H74.6964C74.9426 24.8015 75.1421 24.6003 75.1424 24.352V16.2384C75.1356 16.0301 75.2418 15.8347 75.4195 15.7285C75.5973 15.6224 75.8183 15.6224 75.996 15.7285C76.1738 15.8347 76.28 16.0301 76.2731 16.2384V24.352C76.2724 25.2301 75.567 25.9419 74.6964 25.9429Z" fill="white"/>
<path d="M81.0819 20.1805C80.7696 20.1802 80.5166 19.9249 80.5162 19.61V16.2384C80.5162 15.9233 80.7695 15.6678 81.0819 15.6678C81.3943 15.6678 81.6476 15.9233 81.6476 16.2384V19.61C81.6476 19.7613 81.588 19.9064 81.4819 20.0134C81.3758 20.1204 81.2319 20.1805 81.0819 20.1805Z" fill="white"/>
<path d="M71.252 25.9428C70.9396 25.9428 70.6863 25.6874 70.6863 25.3723V16.2019C70.6795 15.9937 70.7857 15.7982 70.9634 15.692C71.1412 15.5859 71.3622 15.5859 71.5399 15.692C71.7176 15.7982 71.8239 15.9937 71.817 16.2019V25.3755C71.8153 25.6891 71.5629 25.9425 71.252 25.9428Z" fill="white"/>
<path d="M62.0357 24.4323C61.7235 24.432 61.4704 24.1768 61.4701 23.8618V20.6837C61.4701 20.3687 61.7233 20.1132 62.0357 20.1132C62.3481 20.1132 62.6014 20.3687 62.6014 20.6837V23.8618C62.6014 24.0131 62.5418 24.1583 62.4357 24.2652C62.3296 24.3722 62.1857 24.4323 62.0357 24.4323Z" fill="white"/>
<path d="M40.3599 25.9429C40.0476 25.9425 39.7946 25.6873 39.7942 25.3724V16.2384C39.7942 16.0345 39.902 15.8462 40.0771 15.7443C40.2521 15.6424 40.4677 15.6424 40.6427 15.7443C40.8177 15.8462 40.9255 16.0345 40.9255 16.2384V25.3724C40.9252 25.6873 40.6721 25.9425 40.3599 25.9429Z" fill="white"/>
<path d="M37.6169 23.0896C37.467 23.0896 37.3231 23.0295 37.2172 22.9225C37.1112 22.8155 37.0517 22.6704 37.0519 22.5191V19.091C37.062 18.7834 37.3121 18.5394 37.6172 18.5394C37.9223 18.5394 38.1725 18.7834 38.1826 19.091V22.5191C38.1827 22.6705 38.1232 22.8157 38.0171 22.9227C37.911 23.0298 37.767 23.0898 37.6169 23.0896Z" fill="white"/>
<path d="M44.8098 22.9269H43.6143C43.4079 22.9338 43.2141 22.8267 43.1089 22.6474C43.0036 22.4681 43.0036 22.2453 43.1089 22.066C43.2141 21.8867 43.4079 21.7796 43.6143 21.7865H44.8098C45.3518 21.7858 45.7909 21.3429 45.7916 20.7962V19.091C45.8018 18.7834 46.0519 18.5394 46.357 18.5394C46.6621 18.5394 46.9122 18.7834 46.9223 19.091V20.7962C46.9193 21.9717 45.9753 22.9238 44.8098 22.9269Z" fill="white"/>
<path d="M60.6646 25.9429C60.3522 25.9429 60.0989 25.6875 60.0989 25.3724C60.0989 25.0573 60.3522 24.8019 60.6646 24.8019C61.1093 24.8015 61.4697 24.438 61.4701 23.9895C61.4701 23.6744 61.7233 23.4189 62.0357 23.4189C62.3481 23.4189 62.6014 23.6744 62.6014 23.9895C62.6 25.0678 61.7337 25.9416 60.6646 25.9429Z" fill="white"/>
<path d="M50.1512 25.9429C49.8388 25.9429 49.5855 25.6875 49.5855 25.3724V17.0621C49.5855 16.9233 49.474 16.8108 49.3363 16.8108H48.6386C48.3262 16.8108 48.0729 16.5554 48.0729 16.2403C48.0729 15.9252 48.3262 15.6697 48.6386 15.6697H49.3363C50.0995 15.6704 50.718 16.2943 50.7187 17.064V25.3724C50.7187 25.524 50.6589 25.6694 50.5524 25.7765C50.4459 25.8835 50.3015 25.9434 50.1512 25.9429Z" fill="white"/>
<path d="M60.6645 25.9429H53.4417C52.2902 25.9415 51.357 25.0001 51.356 23.8386V23.329C51.356 22.2533 52.2207 21.3812 53.2872 21.3812H57.835C58.9015 21.3812 59.7662 22.2533 59.7662 23.329V23.865C59.773 24.0732 59.6668 24.2687 59.4891 24.3748C59.3113 24.481 59.0903 24.481 58.9126 24.3748C58.7349 24.2687 58.6286 24.0732 58.6355 23.865V23.329C58.636 23.1138 58.5512 22.9072 58.3999 22.7553C58.2486 22.6035 58.0434 22.5189 57.83 22.5204H53.2823C52.8415 22.5228 52.4857 22.8845 52.4867 23.329V23.8418C52.4871 24.3736 52.9144 24.8046 53.4417 24.805H60.6645C60.9769 24.805 61.2302 25.0604 61.2302 25.3755C61.2302 25.6906 60.9769 25.946 60.6645 25.946V25.9429Z" fill="white"/>
<path d="M55.5586 17.2035C55.2462 17.2035 54.993 16.9481 54.993 16.633V16.2019C54.993 15.8868 55.2462 15.6314 55.5586 15.6314C55.871 15.6314 56.1243 15.8868 56.1243 16.2019V16.633C56.1243 16.7843 56.0647 16.9294 55.9586 17.0364C55.8525 17.1434 55.7087 17.2035 55.5586 17.2035Z" fill="white"/>
<path d="M77.602 25.9429C77.3036 25.9417 77.0574 25.707 77.0395 25.4067C77.0215 25.1063 77.238 24.8435 77.5341 24.8062C79.6852 24.5404 82.3036 22.3501 83.0873 20.1805H78.3396C78.0272 20.1805 77.7739 19.925 77.7739 19.61C77.7739 19.2949 78.0272 19.0394 78.3396 19.0394H83.1807C83.5248 19.0401 83.8476 19.2075 84.0485 19.4893C84.2469 19.7688 84.2997 20.1275 84.1905 20.4532C83.3153 23.0538 80.2658 25.6174 77.6711 25.9385C77.6482 25.9415 77.6251 25.943 77.602 25.9429Z" fill="white"/>
<path d="M84.5625 25.9428C84.5391 25.9429 84.5158 25.9414 84.4927 25.9384C82.2606 25.6626 79.5712 23.6519 78.3657 21.3617C78.2541 21.1807 78.2518 20.9521 78.3597 20.7689C78.4676 20.5856 78.6678 20.4783 78.8788 20.4907C79.0898 20.5031 79.2763 20.633 79.3625 20.8276C80.3935 22.7899 82.7558 24.575 84.6279 24.8062C84.9239 24.8435 85.1404 25.1063 85.1224 25.4066C85.1045 25.707 84.8583 25.9417 84.56 25.9428H84.5625Z" fill="white"/>
<path d="M74.1682 21.7174C73.8896 21.7167 73.653 21.5117 73.6104 21.234C73.5679 20.9564 73.7321 20.6888 73.9975 20.6034L76.6189 19.7627C76.9167 19.6672 77.2348 19.8333 77.3294 20.1337C77.4241 20.434 77.2594 20.7549 76.9616 20.8503L74.3389 21.6904C74.2837 21.7082 74.2261 21.7173 74.1682 21.7174Z" fill="white"/>
<path d="M67.0095 23.9643C66.2857 23.9655 65.6616 23.451 65.5188 22.7353L65.1294 20.7969C65.0675 20.4881 65.2655 20.1871 65.5717 20.1246C65.8779 20.0621 66.1764 20.2619 66.2383 20.5707L66.627 22.5091C66.649 22.6182 66.7157 22.7127 66.8108 22.7693C66.9058 22.8258 67.0202 22.839 67.1254 22.8057L72.4294 21.1054C72.7272 21.01 73.0453 21.1761 73.1399 21.4764C73.2346 21.7768 73.0698 22.0976 72.7721 22.193L67.4699 23.8946C67.3209 23.9413 67.1656 23.9648 67.0095 23.9643Z" fill="white"/>
<path d="M38.063 1.33337L33.2069 12.8142H34.7456L36.2289 9.20067H41.4999L43.0181 12.8142H44.5793L39.7014 1.33337H38.063ZM36.7248 7.99365L38.8336 2.87278L40.9417 7.99365H36.7248Z" fill="white"/>
<path d="M48.6841 7.66602H47.3254C46.5 7.66602 46.0851 7.28903 46.0851 6.54697C46.0851 5.74145 46.782 5.33911 48.1758 5.33995C49.1641 5.33528 50.1461 5.49841 51.0807 5.82251V4.53506C50.1347 4.26729 49.1565 4.1326 48.1739 4.13479C45.8508 4.13479 44.6852 4.93908 44.6852 6.54697C44.6852 8.20324 45.5618 9.03452 47.3248 9.03452H48.6835C49.5594 9.03452 49.9998 9.41152 49.9998 10.1548C49.9998 10.9595 49.3314 11.3614 47.9945 11.3606C47.0056 11.3624 46.023 11.2008 45.0858 10.8824V12.1636C46.0317 12.4355 47.0109 12.5713 47.9945 12.567C50.3153 12.567 51.4755 11.7629 51.475 10.1548C51.475 8.4973 50.5487 7.66602 48.6841 7.66602Z" fill="white"/>
<path d="M52.6593 4.13483H54.1376V12.5676H52.6593V4.13483Z" fill="white"/>
<path d="M52.6593 1.08563H54.1376V2.287H52.6593V1.08563Z" fill="white"/>
<path d="M58.6523 4.13483C57.7524 4.14088 56.858 4.27628 55.9959 4.53696V5.74146C56.8581 5.48157 57.7525 5.34639 58.6523 5.33996C60.1599 5.33996 60.9156 5.79361 60.9156 6.71223V7.50832C60.1913 7.39153 59.4586 7.33667 58.7252 7.34433C56.4547 7.34433 55.32 8.21079 55.3213 9.94372C55.3213 11.6911 56.3685 12.567 58.4735 12.567C59.408 12.567 60.2135 12.3785 60.9156 12.0335V12.567H62.3939V6.83098C62.3939 5.03313 61.1467 4.13441 58.6523 4.13483ZM60.9156 10.6996C60.3125 11.1394 59.4989 11.3593 58.4735 11.3593C57.3578 11.3593 56.7958 10.8812 56.7958 9.91419C56.7958 9.00437 57.4396 8.54988 58.7271 8.55071C59.5992 8.55071 60.3269 8.60412 60.9174 8.7078L60.9156 10.6996Z" fill="white"/>
<path d="M63.9725 1.08563H65.4477V12.5677H63.9725V1.08563Z" fill="white"/>
<path d="M71.3604 4.13483C70.3345 4.13483 69.3122 4.49297 68.2935 5.20927L68.2985 4.13483H67.0307V12.567H68.5109V6.43891C69.2697 5.73015 70.0733 5.36761 70.9206 5.36761C72.1665 5.36761 72.7857 6.00096 72.7857 7.25259V12.5682H74.261V7.2727C74.261 5.18225 73.2985 4.13483 71.3604 4.13483Z" fill="white"/>
<path d="M77.3235 3.26212C77.3235 2.33157 77.8717 1.87163 78.9682 1.87163C79.6927 1.87163 80.3219 1.97845 80.8496 2.19208V0.991974C80.2516 0.769046 79.6181 0.65852 78.9806 0.665871C76.8887 0.665871 75.8438 1.68502 75.8458 3.72332V12.5846H77.3254V5.34H79.8428V4.13487H77.3254L77.3235 3.26212Z" fill="white"/>
<path d="M84.3862 4.13483C81.7198 4.13483 80.3875 5.53809 80.3892 8.34462C80.3987 11.1486 81.731 12.5519 84.3862 12.5544C87.0488 12.5544 88.3801 11.1512 88.3801 8.34462C88.3801 5.53809 87.0488 4.13483 84.3862 4.13483ZM84.3862 11.3606C82.705 11.3606 81.8642 10.3475 81.8637 8.32138C81.8637 6.33293 82.7045 5.33912 84.3862 5.33996C86.0678 5.3408 86.9074 6.3346 86.9049 8.32138C86.9049 10.3479 86.0653 11.361 84.3862 11.3606Z" fill="white"/>
<path d="M23.699 18.4413C23.2791 19.6289 22.1646 20.8133 19.8459 21.206C17.6524 21.5767 15.373 21.8249 8.89839 21.3279C8.89839 21.3279 8.56323 21.277 8.0661 21.1796C6.54168 20.9282 3.16951 20.1303 1.24825 17.7866C1.14609 17.6609 1.05513 17.5353 0.965424 17.4033C1.90548 21.2091 4.39562 24.4374 7.82195 26.2923C11.2483 28.1472 15.292 28.4562 18.9563 27.143C21.4077 25.9015 22.954 24.2043 23.5514 22.0963C23.9071 20.8359 23.8822 19.5723 23.6965 18.4413" fill="white"/>
<path d="M26.3168 7.08115C25.5559 5.75123 24.5821 4.55742 23.4349 3.54806V3.55434C20.9654 1.98352 18.6068 1.48651 16.4258 2.08028C15.2621 2.39445 14.2734 2.99136 13.4636 3.65425C14.6939 3.42428 16.2719 3.80567 17.7708 5.63976C19.1856 7.36766 20.5387 9.23443 23.3514 15.1401C23.3514 15.1401 24.4958 18.0989 24.4958 19.7118C24.4958 19.7809 24.5095 19.9078 24.5095 19.9078C24.5199 20.7104 24.4167 21.5104 24.203 22.2835C23.8996 23.3362 23.3757 24.3109 22.6668 25.1418C28.2252 20.9116 29.7908 13.1689 26.3187 7.08115" fill="white"/>
<path d="M14.0672 2.38683C14.0716 2.38306 14.0772 2.37992 14.0815 2.37678C14.109 2.3617 14.137 2.34159 14.1632 2.32589C14.2117 2.29824 14.2591 2.27499 14.3071 2.24797C14.9141 1.89049 15.5648 1.61441 16.2426 1.42675C17.4886 1.0862 18.7869 1.07928 20.1188 1.38402C18.3066 0.54309 16.3361 0.105904 14.3413 0.102234C7.07232 0.112575 1.05526 5.80362 0.578559 13.1193H0.586658C0.574199 13.2393 0.576691 13.3537 0.571084 13.4699C0.564231 13.6283 0.561739 13.7841 0.55987 13.9424H0.890047H0.558624V13.9456C0.558624 13.9776 0.558624 14.0084 0.558624 14.0385C0.597249 15.2952 0.997822 16.4061 1.76657 17.3448C2.82563 18.6398 4.41858 19.4283 5.83211 19.9052C5.05775 18.9401 4.63662 17.3957 5.44088 15.2261C6.21649 13.1268 7.14098 11.0113 10.8103 5.6001C10.8103 5.6001 12.6873 3.23759 14.0697 2.37678L14.0672 2.38683Z" fill="white"/>
</svg>
