<svg width="98" height="28" viewBox="0 0 98 28" fill="none" xmlns="http://www.w3.org/2000/svg">
<path d="M27.1803 5.38645H20.799V0.339661H17.7661V12.7383H20.799V7.90985H27.1803V12.7383H30.2132V0.339661H27.1803V5.38645Z" fill="white"/>
<path d="M59.1109 8.15254H62.0468V9.63261C61.4402 10.0936 60.5182 10.5061 59.1594 10.5061C56.6603 10.5304 54.9376 8.68634 54.9376 6.47836C54.9376 4.00349 56.9272 2.52342 59.1837 2.52342C61.052 2.52342 62.993 3.80939 62.993 3.80939L64.1334 1.81978C64.1334 1.81978 62.1923 0.024292 59.0866 0.024292C54.8163 0.024292 52.0502 2.83885 52.0502 6.50263C52.0502 9.9723 54.5736 12.9567 58.9896 12.9567C61.5858 12.9567 63.3813 12.0104 64.6429 10.9186V5.84751H59.0866L59.1109 8.15254Z" fill="white"/>
<path d="M73.9602 7.78853H80.6326V5.36219H73.9602V2.766H81.1421V0.339661H70.9272V12.7383H81.5304V10.3119H73.9602V7.78853Z" fill="white"/>
<path d="M90.435 10.3119V7.78853H97.1075V5.36219H90.435V2.766H97.617V0.339661H87.4021V12.7383H98.0052V10.3119H90.435Z" fill="white"/>
<path d="M40.3553 0.339661L34.5078 12.7383H37.5893L38.3414 11.0884H45.0867L45.8388 12.7383H48.9688L43.1213 0.339661H40.3553ZM39.4818 8.58922L41.7141 3.71228L43.9463 8.58922H39.4818Z" fill="white"/>
<path d="M7.57542 2.59619C9.20107 2.59619 10.4628 3.29983 11.3605 4.19757L13.2288 2.57192C12.0642 1.14038 10.0988 0 7.59968 0C3.4749 0 0.611816 2.96014 0.611816 6.52686C0.611816 10.0208 3.28079 13.0537 7.47836 13.0537C10.4385 13.0537 12.0884 11.5979 13.2288 10.2392L11.2392 8.44367C10.6326 9.2201 9.49223 10.409 7.42984 10.409C5.19761 10.409 3.59622 8.61352 3.62048 6.55112C3.64474 4.27036 5.36744 2.59619 7.57542 2.59619Z" fill="white"/>
<path d="M78.6187 26.4229V24.7487H80.0017V24.3848V23.8025V21.6673V21.182V20.7453H78.6187V19.3622H80.6326V18.1733H73.7418V19.0711V19.3865V26.4472V27.3207V27.6361H80.7054V26.4472H78.6187V26.4229ZM78.8856 23.8025H77.0173V21.6673H78.8856V23.8025ZM75.1733 19.3622H77.26V20.7453H75.8769V21.2063V21.6915V23.8267V24.409V24.773H77.26V26.4472H75.1733V19.3622Z" fill="white"/>
<path d="M72.8198 23.487C73.1352 22.3466 73.3778 20.9879 73.3778 19.5078H72.8198H72.0433H71.1699C71.2427 18.9255 71.2912 18.2704 71.3397 17.5667H69.9567C69.9324 18.2218 69.8839 18.8769 69.8111 19.5078H68.5251V20.6724H69.6413C69.3258 22.7106 68.8891 24.1906 68.8891 24.1906C68.8891 24.1906 69.5927 24.6031 70.442 25.2825C69.9567 25.8891 69.3501 26.4229 68.5979 26.8839L69.3744 28C70.2236 27.4905 70.9272 26.8839 71.4853 26.1802C71.8735 26.5199 72.2617 26.9081 72.6014 27.2963L73.5962 26.3015C73.5962 26.3015 73.1109 25.8163 72.2132 25.0641C72.4801 24.5546 72.6742 24.045 72.8198 23.487ZM70.3692 23.584C70.5633 22.9047 70.8059 21.9341 71 20.6724H72.0433C71.9948 21.8128 71.7279 23.0502 71.1699 24.1906C70.903 23.9965 70.6603 23.8024 70.3692 23.584Z" fill="white"/>
<path d="M41.6898 23.4142H45.9359V22.201H41.6898V19.5563H46.3241V18.2703H35.4541V19.5563H40.0641V22.201H35.8423V23.4142H40.0641V26.3986H35.1629V27.6603H46.6152V26.3986H41.6898V23.4142Z" fill="white"/>
<path d="M17.8874 19.2408H23.007V19.6533H17.8874V20.1143V20.5753V22.1525H19.1491V20.5753H23.007V22.1525H24.3657V20.5753H28.2721V22.1525H29.5096V20.5753V20.1143V19.6533H24.3657V19.2408H29.5096V18.149H17.8874V19.2408Z" fill="white"/>
<path d="M23.2496 22.4679H22.0364V22.7105H20.0468V22.4679H18.8336V22.7105H18.0087V23.4384H18.8336V23.7053V24.1663V24.1906H20.4108V24.4575H19.4645H18.3241H18.2998V26.0831H19.4645H20.4108V26.3743H18.0087V27.1993H20.4108V27.7816H21.6967V27.1993H24.0988V26.3743H21.6967V26.0831H23.8076V25.9861V25.4523V25.1126V24.506V24.4818H21.6967V24.2149H23.2738V24.1906V23.7296V23.4627H24.0988V22.7348H23.2738L23.2496 22.4679ZM19.4645 25.1126H20.4108V25.4766H19.4645V25.1126ZM22.6187 25.4766H21.6724V25.1126H22.6187V25.4766ZM22.0364 23.7296H20.0468V23.4627H22.0364V23.7296Z" fill="white"/>
<path d="M24.7297 23.4385V25.0156C24.7297 26.6412 24.1473 27.4662 24.1473 27.4662L25.312 27.9515C25.312 27.9515 25.7245 27.4177 25.9186 26.156H28.1265V26.6412C28.1265 26.7383 28.0537 26.7868 27.981 26.7868H27.4714V27.7816H28.7817C29.1213 27.7816 29.4125 27.5147 29.4125 27.1508V23.5355V23.123V22.7106H24.7297V23.4385ZM25.9914 25.3795C25.9914 25.2582 25.9914 25.1369 25.9914 24.9913V24.87H28.1265V25.3795H25.9914ZM28.1265 24.0936H25.9914V23.5598H28.1265V24.0936Z" fill="white"/>
<path d="M22.5702 20.8423H19.6343V21.3761H22.5702V20.8423Z" fill="white"/>
<path d="M22.5702 21.6187H19.6343V22.1768H22.5702V21.6187Z" fill="white"/>
<path d="M27.7626 20.8423H24.8267V21.3761H27.7626V20.8423Z" fill="white"/>
<path d="M27.7626 21.6187H24.8267V22.1768H27.7626V21.6187Z" fill="white"/>
<path d="M62.0953 24.5788V23.4142H58.7227V22.201H57.2427V23.4142H53.9671V24.5788H57.2427V27.7816H58.7227V24.5788H62.0953Z" fill="white"/>
<path d="M54.695 20.3813H56.078V19.3865H59.9359V20.3813H61.3432V19.3865H63.4299V18.1491H61.3432V17.591H59.9359V18.1491H56.078V17.591H54.695V18.1491H52.5841V19.3865H54.695V20.3813Z" fill="white"/>
<path d="M58.0191 19.7504H57.4125C57.4125 19.7504 55.5685 21.4974 52.026 22.5165L52.6083 23.7539C52.6083 23.7539 55.714 22.9289 58.0191 20.9636C60.2998 22.9289 63.4298 23.7539 63.4298 23.7539L64.0121 22.5165C60.4697 21.4974 58.6257 19.7504 58.6257 19.7504H58.0191Z" fill="white"/>
<path d="M52.8752 26.52L53.4818 27.6604C53.4818 27.6604 54.8406 27.1508 56.7089 25.8406L55.9324 24.773C54.234 26.0347 52.8752 26.52 52.8752 26.52Z" fill="white"/>
<path d="M59.4263 25.889C59.4263 25.889 60.227 26.2287 62.435 27.6845L63.0901 26.5441C61.6586 25.5736 60.0329 24.8457 60.0329 24.8457L59.4263 25.889Z" fill="white"/>
</svg>
