<svg width="92" height="28" viewBox="0 0 92 28" fill="none" xmlns="http://www.w3.org/2000/svg">
<path d="M28.2051 17.242C25.7081 13.9399 21.9781 10.5605 20.9469 9.72462C20.2249 9.13965 19.507 8.8455 18.7982 8.85547C18.0869 8.86378 17.4014 9.15793 16.7932 9.68639C16.6718 9.79192 16.4965 9.9473 16.2813 10.1392C14.7981 11.389 10.2172 15.6001 10.1134 15.6981C9.76521 16.023 9.32067 16.2366 8.82128 16.2191C8.38006 16.2008 7.89812 16.0031 7.40289 15.5452C7.06222 15.2303 5.49676 14.0014 3.66789 11.9457C2.54199 10.6802 1.61302 9.55345 1.61302 9.55345C1.61302 9.55345 1.40695 9.97805 1.29145 10.2747C1.19507 10.5215 1.27816 10.676 1.32469 10.7433C1.93625 11.62 4.72732 14.9594 8.57367 18.2748C9.27912 18.8822 10.0137 19.1539 10.7233 19.1448C11.4337 19.1357 12.1209 18.8423 12.7275 18.3139C12.8488 18.2075 13.0241 18.0521 13.2401 17.8602C14.7225 16.6113 17.4986 14.067 18.814 12.8464C19.0956 12.5921 19.3034 12.401 19.4081 12.3013C19.7554 11.9764 20.2008 11.7629 20.6993 11.7812C21.1406 11.7986 21.605 12.0163 22.1185 12.455C22.9412 13.1572 24.274 14.3903 25.8527 16.0546C27.0143 17.2785 27.9009 18.4219 27.9101 18.4344C27.9101 18.4344 28.1261 17.9948 28.2408 17.694C28.3355 17.4464 28.2541 17.306 28.2051 17.242Z" fill="white"/>
<path d="M14.7905 0.00279773C13.0607 0.0480217 11.0405 0.647439 9.08637 2.22723C6.46647 4.34359 3.09294 7.4587 2.23709 8.39847C2.23709 8.39847 2.87515 9.19204 3.87724 10.1742C4.07084 10.3395 4.27518 10.2938 4.44469 10.1152C7.03634 7.61244 9.84417 5.05895 11.4728 3.79844C14.2215 1.67377 17.4454 1.4678 20.588 3.97885C21.7579 4.9153 22.7965 5.84091 24.3138 7.40304C26.254 9.51774 27.5203 11.2843 28.9055 13.276C28.9055 13.276 28.8997 12.7426 28.746 12.0346C28.7202 11.915 28.6669 11.7205 28.5813 11.5485C28.303 10.9893 27.0792 8.89043 25.3026 6.81645C21.7804 2.70255 19.5576 1.44945 18.1317 0.702452C17.3054 0.267672 16.1358 -0.0323765 14.7905 0.00279773ZM16.4329 4.06462C15.4377 4.05465 14.4088 4.35392 13.3814 5.10382C12.0935 6.04526 6.78879 10.971 5.74848 12.1493C5.74848 12.1493 6.4955 12.9735 7.61475 13.9016C7.90475 14.15 8.2571 14.0977 8.56039 13.7928C10.6028 11.7388 14.7714 8.06281 15.3306 7.61411C16.9027 6.27965 18.7334 6.1624 20.4102 7.41793C24.4809 10.4674 28.0812 15.266 28.6994 16.1609C28.6994 16.1609 28.7925 15.7189 28.8473 15.3234C28.8507 15.3002 28.9272 14.9436 28.7228 14.6436C24.9055 9.13044 20.8422 5.72961 19.2826 4.88124C18.3897 4.3939 17.4282 4.07459 16.4329 4.06462Z" fill="white"/>
<path d="M0.831943 11.8394C0.831943 11.8394 0.738807 12.2814 0.683966 12.6769C0.681474 12.6993 0.605029 13.0558 0.809436 13.3574C4.62753 18.8689 8.69004 22.2715 10.2505 23.1191C12.0353 24.0929 14.0951 24.3954 16.1508 22.8956C17.4387 21.955 22.7434 17.0284 23.7837 15.851C23.7837 15.851 23.0366 15.0259 21.9166 14.0994C21.6266 13.8501 21.2743 13.9034 20.9718 14.2075C18.9294 16.2616 14.7607 19.9375 14.2007 20.3862C12.6294 21.7207 10.7988 21.8387 9.122 20.5815C5.05131 17.532 1.45181 12.7351 0.831943 11.8394ZM0.626725 14.7243C0.626725 14.7243 0.615882 15.2386 0.786221 15.9657C0.813641 16.0845 0.864263 16.2798 0.950679 16.4518C1.22904 17.011 2.45299 19.1099 4.22867 21.1839C7.75095 25.2969 9.97373 26.55 11.3996 27.297C13.2883 28.2916 16.971 28.5815 20.4451 25.7722C23.0642 23.6567 26.4393 20.5416 27.2951 19.6018C27.2951 19.6018 26.6571 18.8074 25.655 17.8261C25.4614 17.6608 25.2561 17.7056 25.0866 17.8851C22.495 20.387 19.6871 22.9412 18.0585 24.2001C15.3098 26.3264 12.0851 26.5326 8.94336 24.0199C7.77425 23.0842 6.73481 22.1586 5.21754 20.5973C3.27734 18.4817 2.01104 16.7168 0.626725 14.7243Z" fill="white"/>
<path d="M71.5219 1.4328L71.4754 1.52921C70.824 2.84289 69.8767 4.00877 68.6669 5.0009C68.6544 5.0117 69.2925 5.50113 69.6664 5.73794C70.3959 5.08899 70.996 4.44252 71.4488 3.8185H75.001C74.3736 4.63447 73.7588 5.29998 73.0509 5.76364C72.5822 5.34735 72.1783 5.01505 71.575 4.54226L71.4894 4.47562L70.7251 5.305L70.8249 5.38315C71.3633 5.8252 71.6722 6.0993 72.0262 6.43582C71.0972 6.93936 70.0787 7.33736 68.9162 7.68219C68.9162 7.68219 69.6772 8.71594 69.6988 8.70846C70.3893 8.46749 71.792 7.84434 72.3985 7.56931C71.5959 9.15388 69.8361 10.4226 68.6146 11.0906C68.6146 11.0906 69.1412 11.6557 69.5542 11.9831C71.5027 11.0907 72.8389 9.35814 72.8389 9.35814H75.5279C75.3542 10.2838 74.5464 11.4339 73.4147 12.1277C72.9635 11.6807 72.5256 11.241 71.9913 10.7624L71.1339 11.5087C71.6034 11.9432 72.0197 12.3902 72.372 12.7591C70.6553 13.5011 68.3669 13.6059 68.3669 13.6059L68.8414 14.6513C68.8414 14.6513 75.5626 14.4808 76.922 9.3133L76.9312 8.19152H73.6134C73.8286 7.90402 73.9184 7.58331 73.9184 7.58331L72.7193 7.38146C72.9478 7.25599 73.1663 7.12305 73.3798 6.98927C74.8131 6.07111 75.822 4.98589 76.451 3.76693L76.4659 3.73875V2.64851H72.2456C72.3794 2.43496 72.5032 2.21312 72.6171 1.9921L72.6786 1.87159L71.5219 1.4328ZM40.2334 1.55508V4.02283H35.2097V10.9253H40.2334V14.672H41.5937V10.9253H46.6682V4.02283H41.5937V1.55508H40.2334ZM86.565 1.58237V1.70128C86.5675 2.57791 86.5649 3.42881 86.5557 4.2564H84.855V5.49267H86.5375V7.13548C86.5375 9.63489 86.1088 10.9112 85.1341 12.3944C84.5541 13.2993 83.4897 13.9142 83.4897 13.9142L84.4678 14.8639C84.4678 14.8639 87.7996 13.119 87.7996 7.64321L87.8255 5.49267H90.0565C90.0316 7.73118 89.9502 9.93405 89.8247 12.0421C89.8039 12.7018 89.523 13.0085 88.9446 13.0085C88.4577 12.9985 87.4773 12.9961 87.4773 12.9961C87.5529 13.3899 87.6991 14.308 87.6991 14.308H89.2704C90.3813 14.2897 90.9979 13.6257 91.0968 12.3262C91.2106 10.332 91.2979 7.6532 91.3585 4.38436L91.3619 4.2564H87.8496C87.8654 3.41468 87.8762 2.56121 87.8787 1.70536V1.58237H86.565ZM49.7792 2.02701V14.3379L61.4295 14.3312V2.02701H49.7792ZM68.8505 2.08762C68.8505 2.08762 67.7138 2.37598 66.5447 2.53385C65.0457 2.73577 64.1509 2.82378 64.1509 2.82378L64.2838 4.00369C64.2838 4.00369 65.2809 3.89818 66.0512 3.76108V5.55594H63.9912V6.72664H65.8732C65.3647 8.29625 64.5921 9.81686 63.7528 11.0167C63.7528 11.0167 64.6327 11.9672 64.6426 11.9556C65.1802 11.1978 65.654 10.3462 66.0512 9.42389V14.6677H67.2577V8.91527C67.7047 9.32159 68.1159 9.70384 68.5031 10.0661L68.5912 10.156L69.4454 9.20112L69.3573 9.12138C68.7931 8.62365 67.2577 7.37649 67.2577 7.37649V6.72664H69.0683V5.55594H67.2577V3.66645C68.5373 3.45622 69.1014 3.28579 69.1014 3.28579L68.8505 2.08762ZM79.2478 2.7956V4.0021H84.7244V2.7956H79.2478ZM51.0263 3.19363H60.1847V13.1596H51.0263V3.19363ZM51.933 4.23053V5.35976H54.9848V7.07487H52.183V8.20233H54.9848V10.9113H51.7284V12.0421H59.4643V10.9113H56.1913V8.20233H58.9958V7.07487H56.1913V5.35976H59.2566V4.23053H51.933ZM36.5196 5.22933H40.2334V9.71381H36.5196V5.22933ZM41.5934 5.22933H45.3529V9.71381H41.5934V5.22933ZM78.7045 6.21483V7.42541H80.8564C80.7276 8.11258 79.9766 10.3928 78.9579 12.254C78.8316 12.4842 78.6554 12.6204 78.6554 12.6204L79.0151 13.4878C79.0151 13.4878 82.5291 12.5389 83.5852 12.3802L83.7116 12.6969L84.948 12.2282C84.5583 11.266 83.9592 9.91083 83.5122 8.94115L83.4606 8.83056L82.3422 9.33244L82.3929 9.44551C82.6887 10.1044 82.9563 10.7026 83.2264 11.3814L80.343 12.0628C80.9795 11.0225 81.7747 8.67844 82.2068 7.42541H85.2463V6.21483H78.7045ZM57.4827 8.30618L56.5578 9.00424L56.6517 9.10153C57.0298 9.49788 57.5092 10.0802 57.9139 10.6236L57.9911 10.7225L58.9559 9.98797L58.8786 9.88997C58.5363 9.4529 58.0277 8.87468 57.5557 8.3861L57.4827 8.30618Z" fill="white"/>
<path d="M43.3163 17.0043V24.845H44.3324V21.2138C44.5069 20.9662 44.7189 20.7643 44.9582 20.6197C45.2025 20.4743 45.4616 20.3986 45.73 20.3986C46.0474 20.3986 46.2668 20.4875 46.4039 20.6687C46.5427 20.8506 46.6132 21.1399 46.6132 21.5221V24.845H47.6278V21.3883C47.6278 21.0086 47.5754 20.6954 47.4674 20.4519C47.3585 20.2068 47.2166 20.0123 47.0421 19.8719C46.8701 19.7331 46.6814 19.6375 46.4812 19.5802C46.0898 19.4763 45.6842 19.4764 45.3452 19.5703C45.1832 19.6118 45.0255 19.6741 44.8834 19.7489C44.7405 19.8204 44.6075 19.9143 44.4878 20.019C44.4338 20.0713 44.3781 20.1203 44.3324 20.1726V17.0043H43.3163ZM77.3608 17.0043V24.845H78.1485L78.2882 24.383C78.3064 24.4004 78.3222 24.4146 78.338 24.4345C78.4111 24.5201 78.5091 24.599 78.6304 24.6821C78.7517 24.7627 78.9005 24.8316 79.0692 24.8898C79.2445 24.9446 79.4456 24.9763 79.6674 24.9763C79.9641 24.9763 80.2565 24.9171 80.534 24.8058C80.8141 24.6911 81.0633 24.5158 81.281 24.2832C81.4962 24.0505 81.6732 23.7531 81.802 23.3999C81.9325 23.0526 81.9989 22.6288 81.9989 22.1527C81.9989 21.8087 81.9625 21.5013 81.8944 21.2329C81.8262 20.967 81.734 20.7343 81.6168 20.5382C81.498 20.343 81.3609 20.1751 81.2055 20.0422C81.0526 19.9109 80.8898 19.8046 80.7203 19.7223C80.5574 19.6401 80.3846 19.5819 80.2126 19.552C80.0447 19.5179 79.8843 19.502 79.7373 19.502C79.4199 19.502 79.1315 19.5569 78.8797 19.6658C78.6961 19.7514 78.5265 19.8569 78.3745 19.9857V17.0043H77.3608ZM84.9662 17.0043V24.845H85.9824V17.0043H84.9662ZM38.9663 17.3956C36.8973 17.3956 35.2105 19.0809 35.2105 21.1507C35.2105 23.2213 36.8973 24.9098 38.9663 24.9098C40.4636 24.9098 41.8164 24.0207 42.413 22.648L42.4754 22.5099H41.3943L41.3678 22.5557C40.865 23.4065 39.9484 23.9342 38.9663 23.9342C37.4341 23.9342 36.1861 22.6871 36.1861 21.1507C36.1861 19.6185 37.4341 18.3712 38.9663 18.3712C39.9443 18.3712 40.8583 18.8904 41.3577 19.7338L41.3885 19.782H42.4677L42.408 19.6442C41.8064 18.2781 40.457 17.3956 38.9663 17.3956ZM48.7248 17.5519V18.6663H49.7409V17.5519H48.7248ZM82.8033 17.5519V18.6663H83.8204V17.5519H82.8033ZM63.1919 17.5868V24.845H64.2522V21.3309C64.2522 20.6579 64.233 19.9225 64.1997 19.1373C64.3908 19.6442 64.5812 20.1203 64.7665 20.5673L66.5721 24.845H67.0988L68.9029 20.5673C69.0824 20.146 69.2726 19.6674 69.4704 19.1364C69.438 19.9316 69.4206 20.6712 69.4206 21.3309V24.845H70.4775V17.5868H69.0723L67.3856 21.64C67.2368 21.9873 67.0523 22.4667 66.8346 23.0733C66.6368 22.5232 66.4541 22.043 66.2863 21.6409L64.5986 17.5868H63.1919ZM73.9258 19.4863C72.4185 19.4863 71.1979 20.7078 71.1979 22.2135C71.1979 23.7241 72.4185 24.9454 73.9258 24.9454C75.4339 24.9454 76.6553 23.7241 76.6553 22.2135C76.6553 20.7078 75.4339 19.4863 73.9258 19.4863ZM57.9147 19.502C57.771 19.502 57.6255 19.5096 57.4834 19.5229C57.338 19.5387 57.1992 19.5594 57.0696 19.5852C56.9416 19.6117 56.8154 19.6441 56.6999 19.6832C56.5786 19.7222 56.4755 19.7638 56.3875 19.8086L56.3318 19.8336V20.7236L56.4672 20.6729C56.6832 20.5931 56.9017 20.5275 57.1203 20.481C57.3371 20.4361 57.569 20.4103 57.8149 20.4103C58.1348 20.4103 58.3941 20.4643 58.5811 20.5632C58.7614 20.6662 58.896 20.795 58.9766 20.9437C59.0148 21.0143 59.0415 21.1 59.0572 21.1939C59.0755 21.2945 59.082 21.4123 59.082 21.5411V21.7598C58.9325 21.7091 58.7647 21.6709 58.586 21.6343C58.3608 21.5928 58.1108 21.5686 57.8458 21.5645C57.5608 21.5645 57.2998 21.6044 57.0621 21.6792C56.8278 21.7581 56.6193 21.8693 56.4465 22.0164C56.2745 22.161 56.1397 22.3439 56.0442 22.55C55.9511 22.7586 55.8998 22.9985 55.8998 23.2628C55.8998 23.527 55.9445 23.7681 56.0293 23.98C56.1141 24.1918 56.2387 24.3755 56.3924 24.5226C56.5486 24.6697 56.7364 24.7859 56.9499 24.8623C57.161 24.9363 57.397 24.9763 57.6521 24.9763C57.8365 24.9763 58.0152 24.9546 58.1805 24.9139C58.3451 24.8748 58.4988 24.8191 58.6376 24.7526C58.7772 24.6845 58.9018 24.6048 59.0081 24.5192C59.0622 24.476 59.1095 24.4328 59.1544 24.3888L59.2275 24.845H60.0984V21.3974C60.0984 21.232 60.085 21.0774 60.0601 20.9379C60.0385 20.7949 59.9945 20.6587 59.938 20.5382C59.7918 20.225 59.5424 19.9723 59.2059 19.782C58.8702 19.5984 58.4374 19.502 57.9147 19.502ZM89.139 19.5026C88.844 19.5067 88.5454 19.5644 88.2683 19.6782C87.9842 19.7945 87.7298 19.9724 87.5088 20.2076C87.2902 20.441 87.1133 20.7369 86.9812 21.0818C86.8557 21.4283 86.7884 21.842 86.7884 22.3081C86.7884 22.7817 86.8582 23.1956 86.9911 23.5337C87.1249 23.8761 87.3178 24.1553 87.5563 24.3697C87.7981 24.5816 88.0872 24.7386 88.4154 24.8333C88.7362 24.928 89.0851 24.9763 89.4532 24.9763C89.7573 24.9763 90.0507 24.9505 90.3182 24.8981C90.5908 24.8458 90.8217 24.771 91.0111 24.6821L91.0627 24.653V23.7748L90.9314 23.818C90.7137 23.8969 90.4943 23.9608 90.2775 24.0007C90.0639 24.0439 89.8205 24.0672 89.5579 24.0672C89.3053 24.0672 89.0701 24.033 88.8549 23.9757C88.6455 23.9142 88.4577 23.8188 88.3048 23.6892C88.147 23.562 88.0249 23.3925 87.9327 23.1839C87.8537 22.9953 87.8087 22.7692 87.7996 22.5075H91.2546L91.2589 22.4103C91.2614 22.3032 91.2638 22.2342 91.2638 22.2027V22.0954C91.2638 21.6442 91.2105 21.2503 91.1017 20.9246C90.9962 20.598 90.8476 20.3264 90.6606 20.1154C90.4711 19.9035 90.2452 19.7465 89.9884 19.6484C89.7254 19.5479 89.434 19.4984 89.139 19.5026ZM53.4549 19.5029C53.2416 19.4984 53.0297 19.5213 52.8428 19.5703C52.6716 19.6127 52.5128 19.674 52.3691 19.7555C52.2261 19.8311 52.0925 19.925 51.9786 20.0305C51.9088 20.092 51.8431 20.1594 51.7791 20.2276L51.6453 19.6334H50.8335V24.845H51.8473V21.2138C52.0276 20.9662 52.2394 20.7643 52.4837 20.6198C52.7288 20.4744 52.9889 20.3986 53.2498 20.3986C53.544 20.3986 53.7576 20.4826 53.9055 20.6513C54.0576 20.8225 54.1315 21.115 54.1315 21.5222V24.845H55.1469V21.3884C55.1469 21.0502 55.1019 20.7534 55.0138 20.5166C54.9191 20.2782 54.7946 20.0796 54.6367 19.93C54.4797 19.7813 54.2885 19.6675 54.0749 19.6002C53.8826 19.5396 53.6681 19.5075 53.4549 19.5029ZM48.7239 19.6334V24.845H49.7409V19.6334H48.7239ZM82.8033 19.6334V24.845H83.8204V19.6334H82.8033ZM73.9258 20.3738C74.9437 20.3738 75.7671 21.1973 75.7671 22.2135C75.7671 23.233 74.9437 24.0573 73.9258 24.0573C72.9087 24.0573 72.0845 23.233 72.0845 22.2135C72.0845 21.1973 72.9087 20.3738 73.9258 20.3738ZM79.6086 20.4005C79.755 20.404 79.9033 20.4288 80.0504 20.4768C80.2 20.5233 80.3455 20.6107 80.4793 20.7403C80.6131 20.8682 80.7251 21.0501 80.814 21.2836C80.9013 21.5179 80.9471 21.8346 80.9471 22.216C80.9471 22.4985 80.9146 22.756 80.8548 22.9861C80.7966 23.2138 80.7052 23.4142 80.5872 23.5779C80.4742 23.7382 80.3297 23.8619 80.161 23.9516C79.9898 24.0364 79.7879 24.0829 79.5627 24.0829C79.414 24.0829 79.2744 24.0613 79.1489 24.0156C79.0226 23.9707 78.9055 23.9159 78.8033 23.8503C78.7003 23.7871 78.6105 23.7175 78.5373 23.6419C78.4717 23.5787 78.416 23.5162 78.3745 23.4606V20.9138C78.5315 20.7642 78.7101 20.6445 78.9104 20.5507C79.1264 20.4478 79.3647 20.3947 79.6086 20.4005ZM89.1278 20.4007C89.295 20.4005 89.4578 20.4336 89.5895 20.4984C89.7241 20.5632 89.8355 20.6555 89.9244 20.7693C90.0167 20.8873 90.0888 21.0253 90.1328 21.1831C90.1744 21.3161 90.1952 21.4582 90.206 21.6078H87.8512C87.8744 21.4615 87.9161 21.3284 87.9701 21.1971C88.0415 21.0384 88.1313 20.9005 88.2476 20.7809C88.3581 20.6645 88.4909 20.5691 88.6405 20.5026C88.7892 20.4345 88.9607 20.4009 89.1278 20.4007ZM57.9604 22.4611C58.2014 22.4619 58.4281 22.4826 58.6259 22.5208C58.7979 22.5524 58.9499 22.5849 59.082 22.6214V23.5038C59.0455 23.542 58.9966 23.5836 58.9367 23.6342C58.8578 23.7032 58.7623 23.769 58.6493 23.8363C58.5388 23.9036 58.4083 23.9649 58.267 24.0106C58.0227 24.0921 57.7161 24.1088 57.4635 24.0316C57.3613 23.9983 57.2673 23.9492 57.195 23.8827C57.1219 23.8171 57.0622 23.7315 57.0173 23.6302C56.9741 23.5271 56.9517 23.4024 56.9517 23.2628C56.9517 22.9861 57.0365 22.7918 57.2051 22.6613C57.3863 22.5275 57.6389 22.4611 57.9604 22.4611Z" fill="white"/>
</svg>
