<svg xmlns="http://www.w3.org/2000/svg" width="16" height="16" viewBox="0 0 16 16" fill="none">
  <path fill-rule="evenodd" clip-rule="evenodd" d="M8.00616 1.25647C4.08378 1.25647 0.913452 4.34796 0.913452 8.17112C0.913452 11.2271 2.94462 13.8146 5.76328 14.7306C6.11495 14.7997 6.24427 14.5818 6.24427 14.3984C6.24427 14.2389 6.23276 13.6897 6.23276 13.1166C4.26006 13.5285 3.84904 12.2928 3.84904 12.2928C3.53192 11.4911 3.06244 11.2847 3.06244 11.2847C2.41579 10.8613 3.10939 10.8613 3.10939 10.8613C3.82512 10.9074 4.20159 11.5709 4.20159 11.5709C4.83495 12.625 5.85718 12.3264 6.26819 12.1431C6.32666 11.6967 6.51445 11.3875 6.71465 11.2165C5.14056 11.0562 3.48497 10.4609 3.48497 7.8044C3.48497 7.0488 3.76666 6.43139 4.2131 5.9504C4.14224 5.77855 3.89598 5.06901 4.28397 4.11853C4.28397 4.11853 4.88278 3.93517 6.23276 4.82806C6.81177 4.67675 7.40771 4.59995 8.00616 4.59953C8.60497 4.59953 9.2153 4.67926 9.77869 4.82806C11.1296 3.93517 11.7275 4.11853 11.7275 4.11853C12.1154 5.06901 11.8692 5.77855 11.7984 5.9504C12.2562 6.4305 12.5265 7.0488 12.5265 7.8044C12.5265 10.4609 10.8708 11.0447 9.28527 11.2165C9.54396 11.4335 9.76712 11.8455 9.76712 12.4983C9.76712 13.4257 9.75564 14.1698 9.75564 14.3984C9.75564 14.5818 9.88495 14.7997 10.2367 14.7306C13.0553 13.8146 15.0865 11.2271 15.0865 8.17112C15.0979 4.34708 11.9153 1.25647 8.00616 1.25647Z" fill="currentColor"/>
</svg>