<svg width="63" height="30" viewBox="0 0 63 30" fill="none" xmlns="http://www.w3.org/2000/svg">
<path d="M2.89352 8.70105V16.3796H0.264648V8.70105H2.89352Z" fill="white"/>
<path d="M0.264648 8.70105H2.89352V16.3796H0.264648V8.70105Z" fill="white"/>
<path d="M1.57902 4.26697C2.44824 4.26697 3.15292 4.97237 3.15292 5.84248C3.15292 6.7126 2.44824 7.418 1.57902 7.418C0.709927 7.418 0.00524902 6.7126 0.00524902 5.84248C0.00524902 4.97237 0.709927 4.26697 1.57902 4.26697Z" fill="white"/>
<path d="M0.00524902 4.26697H3.15292V7.418H0.00524902V4.26697Z" fill="white"/>
<path d="M28.3718 9.69672C28.8746 9.69672 29.2345 9.959 29.302 10.0117C29.4828 10.1514 29.6991 10.3461 29.7688 10.605C29.782 10.652 29.8135 10.7997 29.8135 10.7997C29.8318 10.8925 29.8318 10.9258 29.8318 11.1067L29.8317 11.6463C29.8311 11.7729 29.8262 11.9574 29.7865 12.1708L29.782 12.1892C29.6315 12.7744 29.0068 13.2165 28.3294 13.2165C27.814 13.2165 27.2675 12.9932 27.0003 12.6736C26.7366 12.3575 26.5856 11.9291 26.5856 11.4996C26.5856 10.9475 26.7378 10.5386 27.0782 10.1732C27.3871 9.86158 27.8345 9.69672 28.3718 9.69672Z" fill="white"/>
<path d="M49.06 11.5512C49.0883 11.5512 49.1168 11.5523 49.1454 11.5523L49.1512 11.7322C49.1568 11.9177 49.1637 12.1308 49.1712 12.2763V12.4595C49.1712 12.881 48.4679 13.3438 47.778 13.377C47.4051 13.3907 47.1474 13.2808 47.0188 13.0321C46.9857 12.9544 46.9696 12.8536 46.9696 12.724C46.9696 12.3369 47.3278 12.0587 47.3301 12.0574C47.3374 12.0517 48.0377 11.5512 49.06 11.5512Z" fill="white"/>
<path d="M62.6974 -0.00012207L56.4207 21.339L3.91821 16.3865L7.71265 3.74037L62.6974 -0.00012207ZM28.2876 8.32341C27.4248 8.32341 26.6456 8.64762 26.0339 9.26267C25.4384 9.86061 25.1362 10.6279 25.1362 11.542C25.1362 12.2522 25.4663 13.0449 25.999 13.6107C26.606 14.2372 27.3887 14.5819 28.2034 14.5819C28.7938 14.5819 29.2893 14.4605 29.7625 14.2006L29.7848 14.188C29.7951 14.1822 29.806 14.1766 29.8169 14.1696C29.8031 14.5271 29.6755 14.826 29.445 15.0402C29.2223 15.2463 28.6955 15.4788 28.2658 15.496L28.2636 15.4961C28.2128 15.4972 28.1627 15.4983 28.1124 15.4983C27.6439 15.4983 27.1976 15.4134 26.784 15.2441L26.6976 15.2073C26.3635 15.0539 26.0985 14.9016 25.8881 14.7447L25.812 14.6873L25.3812 15.8638L25.6071 16.024C25.6403 16.0491 26.4207 16.6277 27.2801 16.7755C27.5518 16.8213 27.8499 16.8487 28.0775 16.8487C28.4294 16.8487 28.7876 16.7984 29.1726 16.6918C29.652 16.5543 30.0279 16.3608 30.3214 16.0996C30.5948 15.8557 30.9033 15.5486 31.0989 15C31.2769 14.5018 31.2769 13.944 31.2769 13.3541L31.2809 8.47229H29.8683L29.8707 8.76554C29.39 8.47229 28.8574 8.32341 28.2876 8.32341ZM41.0413 7.10929L39.5921 7.21462V8.47229H38.385V9.83883H39.5921V12.5981C39.5921 13.3139 39.7408 13.8283 40.0469 14.1719C40.3747 14.5408 40.8331 14.7355 41.3765 14.7355C41.7228 14.7355 42.2457 14.7355 42.884 14.5098L43.3429 14.3277L42.8995 13.117L42.5539 13.2326L42.5025 13.2452L42.5011 13.2456C42.2594 13.3108 42.0058 13.3792 41.6855 13.361C41.5473 13.3535 41.492 13.3361 41.4785 13.3319L41.4762 13.3312C41.4715 13.3301 41.0259 13.2018 41.0413 12.5397V9.83883H43.0518V8.47229H41.0413V7.10929ZM13.0107 5.95469C12.1777 5.95469 10.4201 6.11503 10.4024 6.11743L10.3383 6.12309L10.3412 14.5498L10.3956 14.5626C10.3956 14.5626 10.4015 14.5639 10.408 14.5653L10.435 14.571C10.6062 14.6059 11.3285 14.7342 12.7126 14.7342C14.5772 14.7342 15.8862 14.2921 16.7141 13.3827C17.1214 12.9313 17.4458 12.3759 17.6255 11.8227C17.8291 11.3152 17.8721 10.6245 17.8721 10.1343C17.8721 9.0141 17.527 8.07597 16.8473 7.34753C16.0395 6.42312 14.7488 5.95469 13.0107 5.95469ZM50.1706 9.14927C49.5576 8.21435 48.0043 8.35006 47.6275 8.39901L47.579 8.4057L47.5623 8.40824C46.9845 8.47116 46.56 8.61213 46.3093 8.71746C46.0576 8.80682 45.8198 8.97282 45.6645 9.09766L45.6251 9.12976L46.0627 10.3244L46.1383 10.2672C46.2608 10.1744 46.4157 10.0931 46.6126 10.0185C47.0228 9.86513 47.437 9.75852 47.845 9.70253C48.0093 9.68013 48.1761 9.6825 48.264 9.68374C48.2798 9.68396 48.2931 9.68415 48.3033 9.68415C48.4485 9.68995 48.9337 9.74255 49.0905 10.2374C49.095 10.25 49.099 10.2718 49.1019 10.2958C48.1208 10.3256 47.1791 10.565 46.5721 10.9407C45.9037 11.3415 45.5203 12.0219 45.5203 12.8076C45.5203 13.3312 45.6846 13.7515 46.0222 14.0929C46.4031 14.4789 47.0038 14.7079 47.6293 14.7079C48.1666 14.7079 48.7311 14.5774 49.1413 14.3574C49.1922 14.3288 49.2782 14.2738 49.3461 14.2303C49.3709 14.345 49.3954 14.4445 49.4213 14.5316L49.436 14.5819H50.9493L50.8606 14.3929C50.6873 14.0253 50.5987 13.4962 50.5757 13.1549L50.5689 13.0665C50.5637 12.9989 50.5614 12.9658 50.5614 12.85V11.0025C50.5614 10.8994 50.5539 10.6955 50.5539 10.6955C50.5391 9.85707 50.4406 9.56157 50.1706 9.14927ZM54.8638 5.95469H53.414V14.5819H54.8638V5.95469ZM35.6365 8.47229H34.1873V14.5819H35.6365V8.47229ZM22.2292 8.47229H20.7801V14.5819H22.2292V8.47229ZM34.9122 5.95469C34.4739 5.95469 34.1168 6.31085 34.1168 6.74959C34.1168 7.18832 34.4739 7.54449 34.9122 7.54449C35.3503 7.54449 35.7074 7.18832 35.7074 6.74959C35.7074 6.31085 35.3503 5.95469 34.9122 5.95469ZM21.5045 5.95469C21.0662 5.95469 20.7092 6.31085 20.7092 6.74959C20.7092 7.18832 21.0662 7.54449 21.5045 7.54449C21.9427 7.54449 22.2997 7.18832 22.2997 6.74959C22.2997 6.31085 21.9427 5.95469 21.5045 5.95469Z" fill="white"/>
<path fill-rule="evenodd" clip-rule="evenodd" d="M3.91821 16.3865L56.4207 21.339L62.6974 -0.00012207L7.71265 3.74037L3.91821 16.3865ZM10.4024 6.11743C10.4201 6.11503 12.1777 5.95469 13.0107 5.95469C14.7488 5.95469 16.0395 6.42312 16.8473 7.34753C17.527 8.07597 17.8721 9.0141 17.8721 10.1343C17.8721 10.6245 17.8291 11.3152 17.6255 11.8227C17.4458 12.3759 17.1214 12.9313 16.7141 13.3827C15.8862 14.2921 14.5772 14.7342 12.7126 14.7342C11.3285 14.7342 10.6062 14.6059 10.435 14.571L10.408 14.5653L10.3956 14.5626L10.3412 14.5498L10.3383 6.12309L10.4024 6.11743ZM28.2876 8.32341C27.4248 8.32341 26.6456 8.64762 26.0339 9.26267C25.4384 9.86061 25.1362 10.6279 25.1362 11.542C25.1362 12.2522 25.4663 13.0449 25.999 13.6107C26.606 14.2372 27.3887 14.5819 28.2034 14.5819C28.7938 14.5819 29.2893 14.4605 29.7625 14.2006L29.7848 14.188C29.7951 14.1822 29.806 14.1766 29.8169 14.1696C29.8031 14.5271 29.6755 14.826 29.445 15.0402C29.2223 15.2463 28.6955 15.4788 28.2658 15.496L28.2636 15.4961C28.2128 15.4972 28.1627 15.4983 28.1124 15.4983C27.6439 15.4983 27.1976 15.4134 26.784 15.2441L26.6976 15.2073C26.3635 15.0539 26.0985 14.9016 25.8881 14.7447L25.812 14.6873L25.3812 15.8638L25.6071 16.024C25.6403 16.0491 26.4207 16.6277 27.2801 16.7755C27.5518 16.8213 27.8499 16.8487 28.0775 16.8487C28.4294 16.8487 28.7876 16.7984 29.1726 16.6918C29.652 16.5543 30.0279 16.3608 30.3214 16.0996C30.5948 15.8557 30.9033 15.5486 31.0989 15C31.2769 14.5018 31.2769 13.944 31.2769 13.3541L31.2809 8.47229H29.8683L29.8707 8.76554C29.39 8.47229 28.8574 8.32341 28.2876 8.32341ZM20.7801 8.47229H22.2292V14.5819H20.7801V8.47229ZM21.5045 5.95469C21.0662 5.95469 20.7092 6.31085 20.7092 6.74959C20.7092 7.18832 21.0662 7.54449 21.5045 7.54449C21.9427 7.54449 22.2997 7.18832 22.2997 6.74959C22.2997 6.31085 21.9427 5.95469 21.5045 5.95469ZM34.1873 8.47229H35.6365V14.5819H34.1873V8.47229ZM34.9122 5.95469C34.4739 5.95469 34.1168 6.31085 34.1168 6.74959C34.1168 7.18832 34.4739 7.54449 34.9122 7.54449C35.3503 7.54449 35.7074 7.18832 35.7074 6.74959C35.7074 6.31085 35.3503 5.95469 34.9122 5.95469ZM39.5921 7.21462L41.0413 7.10929V8.47229H43.0518V9.83883H41.0413V12.5397C41.0259 13.2018 41.4715 13.3301 41.4762 13.3312L41.4785 13.3319C41.492 13.3361 41.5473 13.3535 41.6855 13.361C42.0058 13.3792 42.2594 13.3108 42.5011 13.2456L42.5025 13.2452L42.5539 13.2326L42.8995 13.117L43.3429 14.3277L42.884 14.5098C42.2457 14.7355 41.7228 14.7355 41.3765 14.7355C40.8331 14.7355 40.3747 14.5408 40.0469 14.1719C39.7408 13.8283 39.5921 13.3139 39.5921 12.5981V9.83883H38.385V8.47229H39.5921V7.21462ZM50.1706 9.14927C49.5576 8.21435 48.0043 8.35006 47.6275 8.39901L47.579 8.4057L47.5623 8.40824C46.9845 8.47116 46.56 8.61213 46.3093 8.71746C46.0576 8.80682 45.8198 8.97282 45.6645 9.09766L45.6251 9.12976L46.0627 10.3244L46.1383 10.2672C46.2608 10.1744 46.4157 10.0931 46.6126 10.0185C47.0228 9.86513 47.437 9.75852 47.845 9.70253C48.0093 9.68013 48.1761 9.6825 48.264 9.68374C48.2798 9.68396 48.2931 9.68415 48.3033 9.68415C48.4485 9.68995 48.9337 9.74255 49.0905 10.2374C49.095 10.25 49.099 10.2718 49.1019 10.2958C48.1208 10.3256 47.1791 10.565 46.5721 10.9407C45.9037 11.3415 45.5203 12.0219 45.5203 12.8076C45.5203 13.3312 45.6846 13.7515 46.0222 14.0929C46.4031 14.4789 47.0038 14.7079 47.6293 14.7079C48.1666 14.7079 48.7311 14.5774 49.1413 14.3574C49.1922 14.3288 49.2782 14.2738 49.3461 14.2303C49.3709 14.345 49.3954 14.4445 49.4213 14.5316L49.436 14.5819H50.9493L50.8606 14.3929C50.6873 14.0253 50.5987 13.4962 50.5757 13.1549L50.5689 13.0665C50.5637 12.9989 50.5614 12.9658 50.5614 12.85V11.0025C50.5614 10.8994 50.5539 10.6955 50.5539 10.6955C50.5391 9.85707 50.4406 9.56157 50.1706 9.14927ZM53.414 5.95469H54.8638V14.5819H53.414V5.95469Z" fill="white"/>
<path d="M12.9638 7.33948C14.1281 7.33948 15.0584 7.63385 15.6529 8.18825C16.1855 8.70828 16.4229 9.30721 16.4229 10.1308C16.4229 11.1114 16.1414 11.9063 15.6082 12.4274C15.0006 13.0242 14.0784 13.3151 12.7881 13.3151C12.7881 13.3151 12.7812 13.3153 12.7691 13.3154L12.6387 13.3153C12.4274 13.3142 12.0392 13.3088 11.7881 13.2888V7.41851C11.8687 7.4048 11.9546 7.39222 12.0422 7.38189C12.347 7.35432 12.6572 7.33948 12.9638 7.33948Z" fill="white"/>
<path d="M2.53218 23.9792V24.8396H4.24013V23.9792H4.78039V24.8396H6.47902V25.3485H4.78039V25.9173H4.24013V25.3485H2.53218V25.9173H1.98965V25.3485H0.362915V24.8396H1.98965V23.9792H2.53218Z" fill="white"/>
<path d="M21.0582 24.5022V25.0147H20.4686V26.2765H21.0582V26.7905H20.4686V28.7197L21.0662 28.4367V29.0175L19.1094 29.9573V29.3769L19.9226 28.9816V26.7905H19.1021V26.2765H19.9226V25.0147H19.1088V24.5022H21.0582Z" fill="white"/>
<path d="M25.218 26.2765V26.7904H23.5514V27.2539H24.7313C25.0284 27.2539 25.2126 27.438 25.2126 27.733V29.9942H24.6702V27.7694L24.1149 27.7682V29.9942H23.578V27.7675H23.0059V29.9942H22.4668V27.7675H21.9412V29.9942H21.3988V27.733C21.3988 27.438 21.5834 27.2539 21.8787 27.2539H23.0137V26.7904H21.3833V26.2765H25.218Z" fill="white"/>
<path d="M57.6524 24.0493L57.5967 24.2572L59.5617 24.2576V24.7734H58.6167V25.5496H59.7991V26.066H58.93L59.8264 26.6126V27.1981L58.3484 26.2307L56.7171 27.5878V26.8976L57.7697 26.066H56.7112V25.5496H58.0735V24.7734L57.4392 24.7735L57.2885 25.3005H56.7342L57.1014 24.0493H57.6524Z" fill="white"/>
<path d="M61.9386 24.2587C62.1725 24.2587 62.3622 24.4486 62.3622 24.6827V26.4088C62.3622 26.6429 62.1725 26.8328 61.9386 26.8328H60.3916C60.1576 26.8328 59.9679 26.6429 59.9679 26.4088V24.6827C59.9679 24.4486 60.1576 24.2587 60.3916 24.2587H61.9386ZM60.5005 24.7711V26.3176L61.8147 26.319V24.7725L60.5005 24.7711Z" fill="white"/>
<path d="M61.5765 27.3026C61.8106 27.3026 62.0001 27.4926 62.0001 27.7267V29.5686C62.0001 29.8029 61.8106 29.9928 61.5765 29.9928H57.7177C57.4838 29.9928 57.2939 29.8029 57.2939 29.5686V27.7267C57.2939 27.4926 57.4838 27.3026 57.7177 27.3026H61.5765ZM61.4599 28.9056H57.841L57.8418 29.467H61.4607L61.4599 28.9056ZM61.4586 27.8092H57.8397L57.8404 28.3898H61.4593L61.4586 27.8092Z" fill="white"/>
<path d="M39.7811 23.9731V23.9788L39.7791 25.3422H41.125L40.994 25.8572H40.055L41.2184 27.0902H40.5821L39.7811 26.231V27.0328H39.2335V26.2402L38.3601 27.1182H37.7179L37.7272 27.1088L38.9548 25.8572H37.8429V25.8515L37.8449 25.3422H39.2332L39.2321 23.9731H39.7811Z" fill="white"/>
<path d="M38.6061 24.314L39.1259 25.1219H39.1156L38.4871 25.1243L37.97 24.314H38.6061Z" fill="white"/>
<path d="M41.1091 24.314L41.1036 24.3226L40.5921 25.1243L39.953 25.1219L39.9587 25.1132L40.4729 24.314H41.1091Z" fill="white"/>
<path d="M42.1852 24.2286L42.1835 24.2358L41.9804 24.994H43.9107V25.5099H43.5467V26.6071L42.831 27.8699L44.0436 30.0001H43.4848L42.5555 28.3561L41.6239 30.0001H41.0647L42.2725 27.8553L41.5544 26.5852L41.5119 26.7436H40.9586L40.9605 26.7363L41.6308 24.2286H42.1852ZM43.0017 25.5099H41.8423L41.7288 25.9337L42.5459 27.3693L43.0017 26.56V25.5099Z" fill="white"/>
<path d="M39.5175 27.2173L39.3473 27.5746H41.2184V28.0723H40.6863V28.7285L39.9363 29.1963L40.8856 29.9458L40.9515 29.9965L40.2109 29.9977L39.5085 29.4633L38.6483 30H37.7864L39.0994 29.1521L38.2895 28.536L38.5123 28.0723H37.7178V27.5746H38.7527L38.9246 27.2173H39.5175ZM40.1481 28.0723H39.1103L38.9469 28.4153L39.1507 28.5762L39.5242 28.871L40.1481 28.475V28.0723Z" fill="white"/>
<path d="M4.79942 26.2361L5.64068 26.2367L3.80886 27.7647L6.49522 29.9928H5.66808L3.396 28.1097L1.13888 29.9928H0.320923L2.97861 27.7633L1.13648 26.2367H1.96729L3.3902 27.4176L4.79942 26.2361Z" fill="white"/>
<path d="M23.5826 23.9788V25.28H24.5968V24.4328H25.1327V25.3511C25.1327 25.6318 24.9574 25.7932 24.6515 25.7932H21.9839C21.6875 25.7932 21.5038 25.61 21.5038 25.3145V24.4328H22.039V25.2783H23.0461V23.9788H23.5826Z" fill="white"/>
</svg>
