<svg width="81" height="26" viewBox="0 0 81 26" fill="none" xmlns="http://www.w3.org/2000/svg">
<path d="M10.5523 3.14516C5.12281 3.14516 0.69751 7.55942 0.69751 12.989C0.69751 18.4185 5.12281 22.8438 10.5523 22.8438C15.9819 22.8438 20.4072 18.4185 20.4072 12.989C20.4072 7.55942 15.9819 3.14516 10.5523 3.14516ZM10.5523 19.8311C6.77815 19.8311 3.71024 16.7632 3.71024 12.989C3.71024 9.21477 6.77815 6.14686 10.5523 6.14686C14.3265 6.14686 17.3945 9.21477 17.3945 12.989C17.3945 16.7632 14.3265 19.8311 10.5523 19.8311ZM30.0634 0C30.9683 0 31.7077 0.739389 31.7077 1.64431V9.49066H37.06C37.9097 9.49066 38.605 10.1859 38.605 11.0357C38.605 11.8854 37.9097 12.5806 37.06 12.5806H31.7077V24.3557C31.7077 25.2606 30.9683 26 30.0634 26C29.1585 26 28.4191 25.2606 28.4191 24.3557V12.5806H23.2765C22.4267 12.5806 21.7315 11.8854 21.7315 11.0357C21.7315 10.1859 22.4267 9.49066 23.2765 9.49066H28.4191V1.64431C28.4191 0.739389 29.1585 0 30.0634 0ZM24.5865 13.8912L24.7332 13.8939H24.7442C25.6381 13.9491 26.2892 14.7326 26.2009 15.6154C25.9802 17.6902 25.6822 19.9194 25.3843 21.5306C25.1084 23.0535 24.6118 24.2895 23.8945 25.2275C23.5855 25.6358 23.0557 25.8124 22.5591 25.6579C21.908 25.4593 21.5549 24.775 21.7425 24.1239C22.0956 22.91 22.3605 21.5085 22.5481 20.0849C22.7357 18.6503 22.9454 16.8735 23.0999 15.2954C23.168 14.5651 23.7345 13.9895 24.443 13.902L24.5865 13.8912ZM35.8365 13.8912C36.6027 13.9134 37.2521 14.5164 37.3248 15.2954C37.4793 16.8735 37.689 18.6503 37.8766 20.0849H37.8877C38.0753 21.5085 38.3401 22.91 38.6933 24.1239C38.8809 24.775 38.5277 25.4593 37.8766 25.6579C37.3911 25.8124 36.8503 25.6358 36.5413 25.2275C35.824 24.2895 35.3274 23.0535 35.0515 21.5306C34.7535 19.9194 34.4556 17.6902 34.2349 15.6154C34.1466 14.7326 34.8087 13.9491 35.6916 13.8939L35.8365 13.8912ZM36.5634 0.816638C37.4131 0.816638 38.0863 1.5781 37.9759 2.42784C37.8656 3.26655 37.7552 4.02801 37.6228 4.71222C37.5014 5.45161 37.049 6.59932 36.5744 7.52632C36.2985 8.0781 35.6474 8.32088 35.0736 8.12224V8.11121C34.4445 7.90153 34.1135 7.21732 34.3011 6.58829C34.6432 5.42954 34.8529 4.54669 34.9411 3.84041C35.0074 3.29966 35.0846 2.71477 35.1398 2.09677C35.217 1.36842 35.835 0.816638 36.5634 0.816638ZM23.6186 0.827674C24.358 0.827674 24.9759 1.37946 25.0422 2.10781C25.0973 2.71477 25.1636 3.29966 25.2408 3.85144C25.3291 4.55772 25.5277 5.44058 25.8809 6.59932C26.0685 7.22835 25.7374 7.90153 25.1084 8.12224C24.5345 8.32088 23.8834 8.06706 23.6075 7.52632C23.133 6.59932 22.6805 5.45161 22.5591 4.71222V4.72326C22.4267 4.05009 22.3164 3.27759 22.206 2.43888C22.0956 1.5781 22.7578 0.827674 23.6186 0.827674ZM52.6423 3.14516C47.2128 3.14516 42.7875 7.55942 42.7875 13C42.7875 18.4406 47.2128 22.8548 52.6423 22.8548C58.0719 22.8548 62.4972 18.4295 62.4972 13C62.4972 7.57046 58.0719 3.14516 52.6423 3.14516ZM52.6423 19.8311C48.8681 19.8311 45.8002 16.7632 45.8002 12.989C45.8002 9.21477 48.8681 6.14686 52.6423 6.14686C56.4165 6.14686 59.4844 9.21477 59.4844 12.989C59.4844 16.7632 56.4165 19.8311 52.6423 19.8311ZM77.6491 12.4372C76.689 11.8302 74.4929 11.6647 72.9479 11.753V6.52207H78.2782C79.0727 6.52207 79.7238 5.87097 79.7238 5.0764C79.7238 4.28183 79.0727 3.63073 78.2782 3.63073H72.9479V1.65535C72.9479 0.750424 72.2085 0.0110357 71.3036 0.0110357C70.3987 0.0110357 69.6593 0.750424 69.6593 1.65535V3.63073H64.0973C63.3028 3.63073 62.6517 4.28183 62.6517 5.0764C62.6517 5.87097 63.3028 6.52207 64.0973 6.52207H69.6593V12.0399C69.1296 12.1282 67.8384 12.3379 66.7459 12.5475C66.5031 11.9626 65.9293 11.5543 65.2561 11.5543C64.3732 11.5543 63.6449 12.2716 63.6449 13.1655V22.4907C63.6449 23.5611 63.8987 24.3778 64.4063 24.9185C64.9029 25.4482 65.7417 25.7131 66.9335 25.7131H77.5057C78.0574 25.7131 78.532 25.3379 78.6754 24.8081C78.8741 24.0467 78.3002 23.2963 77.5057 23.2963H67.9157C67.0439 23.2963 66.8673 22.9873 66.8673 22.0603V15.0195C70.2773 14.4236 73.2238 14.3684 74.0736 14.4567C76.3911 14.6774 76.5897 16.7852 75.6737 20.118C75.4641 20.8905 75.9055 21.6961 76.6669 21.9389C77.4725 22.1927 78.2782 21.6961 78.543 20.9015C78.841 20.0297 79.161 18.9372 79.3707 16.9618C79.6024 14.9423 79.3155 13.5187 77.6491 12.4593V12.4372Z" fill="currentColor"/>
</svg>
