<svg width="104" height="30" viewBox="0 0 104 30" fill="none" xmlns="http://www.w3.org/2000/svg">
<path d="M42.097 21.982C40.8678 21.982 39.739 21.6915 38.7106 21.1106C37.6821 20.5296 36.8669 19.7277 36.2649 18.7048C35.6628 17.6692 35.3618 16.501 35.3618 15.2003C35.3618 13.9121 35.6628 12.7566 36.2649 11.7336C36.8669 10.6981 37.6821 9.88982 38.7106 9.30889C39.739 8.72796 40.8678 8.4375 42.097 8.4375C43.3387 8.4375 44.4675 8.72796 45.4834 9.30889C46.5118 9.88982 47.3208 10.6981 47.9103 11.7336C48.5123 12.7566 48.8133 13.9121 48.8133 15.2003C48.8133 16.501 48.5123 17.6692 47.9103 18.7048C47.3208 19.7277 46.5118 20.5296 45.4834 21.1106C44.4549 21.6915 43.3261 21.982 42.097 21.982ZM42.097 19.614C42.8871 19.614 43.5832 19.4372 44.1853 19.0836C44.7873 18.7174 45.2576 18.1996 45.5963 17.5303C45.9349 16.861 46.1042 16.0843 46.1042 15.2003C46.1042 14.3162 45.9349 13.5459 45.5963 12.8892C45.2576 12.2198 44.7873 11.7084 44.1853 11.3548C43.5832 11.0012 42.8871 10.8244 42.097 10.8244C41.3068 10.8244 40.6045 11.0012 39.9899 11.3548C39.3879 11.7084 38.9175 12.2198 38.5789 12.8892C38.2403 13.5459 38.0709 14.3162 38.0709 15.2003C38.0709 16.0843 38.2403 16.861 38.5789 17.5303C38.9175 18.1996 39.3879 18.7174 39.9899 19.0836C40.6045 19.4372 41.3068 19.614 42.097 19.614Z" fill="white"/>
<path d="M55.6079 11.2032C56.8496 11.2032 57.8529 11.601 58.618 12.3966C59.3831 13.1796 59.7656 14.2784 59.7656 15.6928V21.8494H57.1318V16.0527C57.1318 15.2192 56.9248 14.5814 56.5109 14.1394C56.097 13.6848 55.5326 13.4575 54.8177 13.4575C54.0903 13.4575 53.5133 13.6848 53.0869 14.1394C52.673 14.5814 52.4661 15.2192 52.4661 16.0527V21.8494H49.8322V11.3548H52.4661V12.6619C52.8172 12.2072 53.2625 11.8536 53.8018 11.601C54.3537 11.3358 54.9557 11.2032 55.6079 11.2032Z" fill="white"/>
<path d="M71.2066 16.3747C71.2066 16.7536 71.1815 17.0946 71.1314 17.3977H63.512C63.5747 18.1554 63.8381 18.749 64.3021 19.1784C64.7662 19.6077 65.3369 19.8224 66.0141 19.8224C66.9924 19.8224 67.6885 19.3994 68.1024 18.5532H70.9432C70.6422 19.5635 70.0653 20.397 69.2124 21.0537C68.3595 21.6978 67.3123 22.0198 66.0706 22.0198C65.0672 22.0198 64.1642 21.7988 63.3615 21.3568C62.5713 20.9022 61.9505 20.2644 61.4989 19.4436C61.06 18.6227 60.8405 17.6755 60.8405 16.6021C60.8405 15.516 61.06 14.5625 61.4989 13.7416C61.9379 12.9207 62.5525 12.2893 63.3427 11.8473C64.1328 11.4053 65.0421 11.1843 66.0706 11.1843C67.0614 11.1843 67.9456 11.399 68.7233 11.8283C69.5134 12.2577 70.1217 12.8702 70.5481 13.6659C70.9871 14.4488 71.2066 15.3518 71.2066 16.3747ZM68.4787 15.617C68.4661 14.9351 68.2216 14.392 67.745 13.9879C67.2684 13.5711 66.6852 13.3628 65.9953 13.3628C65.3431 13.3628 64.7913 13.5648 64.3398 13.9689C63.9008 14.3604 63.6311 14.9098 63.5308 15.617H68.4787Z" fill="white"/>
<path d="M79.9771 21.8494L75.1986 15.958V21.8494H72.5647V8.62693H75.1986V14.5562L79.9771 8.62693H83.1566L77.7384 15.1813L83.3071 21.8494H79.9771Z" fill="white"/>
<path d="M92.6589 16.3747C92.6589 16.7536 92.6339 17.0946 92.5837 17.3977H84.9643C85.027 18.1554 85.2904 18.749 85.7545 19.1784C86.2185 19.6077 86.7892 19.8224 87.4665 19.8224C88.4448 19.8224 89.1409 19.3994 89.5547 18.5532H92.3956C92.0945 19.5635 91.5176 20.397 90.6647 21.0537C89.8119 21.6978 88.7646 22.0198 87.5229 22.0198C86.5195 22.0198 85.6165 21.7988 84.8138 21.3568C84.0236 20.9022 83.4028 20.2644 82.9513 19.4436C82.5123 18.6227 82.2928 17.6755 82.2928 16.6021C82.2928 15.516 82.5123 14.5625 82.9513 13.7416C83.3902 12.9207 84.0048 12.2893 84.795 11.8473C85.5851 11.4053 86.4944 11.1843 87.5229 11.1843C88.5137 11.1843 89.398 11.399 90.1756 11.8283C90.9657 12.2577 91.574 12.8702 92.0005 13.6659C92.4395 14.4488 92.6589 15.3518 92.6589 16.3747ZM89.931 15.617C89.9185 14.9351 89.6739 14.392 89.1973 13.9879C88.7207 13.5711 88.1375 13.3628 87.4477 13.3628C86.7955 13.3628 86.2436 13.5648 85.7921 13.9689C85.3531 14.3604 85.0835 14.9098 84.9831 15.617H89.931Z" fill="white"/>
<path d="M103.612 11.3548L97.1588 26.8125H94.3557L96.6133 21.5841L92.4367 11.3548H95.3904L98.0807 18.6858L100.809 11.3548H103.612Z" fill="white"/>
<path d="M15.3619 21.4789C16.797 21.4789 17.9604 20.3155 17.9604 18.8804C17.9604 17.4453 16.797 16.2819 15.3619 16.2819C13.9268 16.2819 12.7634 17.4453 12.7634 18.8804C12.7634 20.3155 13.9268 21.4789 15.3619 21.4789Z" fill="white"/>
<path fill-rule="evenodd" clip-rule="evenodd" d="M15.3618 30C25.7172 30 30.3618 25.3553 30.3618 15C30.3618 4.64466 25.7172 0 15.3618 0C5.00648 0 0.361816 4.64466 0.361816 15C0.361816 25.3553 5.00648 30 15.3618 30ZM12.5442 6.36053H16.7171V13.2371H14.1298V8.57421H11.8121L12.5442 6.36053ZM15.3619 23.6395C17.9902 23.6395 20.1209 21.5088 20.1209 18.8804C20.1209 16.2521 17.9902 14.1214 15.3619 14.1214C12.7336 14.1214 10.6029 16.2521 10.6029 18.8804C10.6029 21.5088 12.7336 23.6395 15.3619 23.6395Z" fill="white"/>
</svg>
