<svg xmlns="http://www.w3.org/2000/svg" width="16" height="16" viewBox="0 0 16 16" fill="none">
  <path fill-rule="evenodd" clip-rule="evenodd" d="M2.61258 7.28036C5.96602 5.81931 8.20217 4.85611 9.32103 4.39074C12.5156 3.06201 13.1794 2.83118 13.612 2.82357C13.7072 2.82189 13.92 2.84547 14.0578 2.95731C14.1742 3.05174 14.2062 3.17929 14.2215 3.26883C14.2369 3.35836 14.256 3.56231 14.2407 3.72168C14.0677 5.54061 13.3186 9.95468 12.9375 11.992C12.7763 12.854 12.4587 13.143 12.1513 13.1712C11.4834 13.2328 10.9761 12.7298 10.3291 12.3057C9.31665 11.642 8.74469 11.2289 7.76194 10.5813C6.62621 9.83289 7.36246 9.42151 8.0097 8.74924C8.1791 8.57331 11.1223 5.89615 11.1794 5.6533C11.1864 5.62292 11.1931 5.5097 11.1258 5.44992C11.0585 5.39014 10.9593 5.41058 10.8877 5.42683C10.7862 5.44988 9.16873 6.51892 6.03552 8.63393C5.57643 8.94917 5.1606 9.10277 4.78804 9.09472C4.37731 9.08585 3.58724 8.86248 2.9999 8.67157C2.2795 8.43739 1.70696 8.31359 1.75681 7.9159C1.78278 7.70875 2.06804 7.4969 2.61258 7.28036Z" fill="currentColor"/>
</svg>