<svg xmlns="http://www.w3.org/2000/svg" width="16" height="16" viewBox="0 0 16 16" fill="none">
  <path fill-rule="evenodd" clip-rule="evenodd" d="M13.5894 12.4265C14.4859 11.7764 15.0588 10.8159 15.0588 9.74763C15.0588 7.79118 13.1547 6.20471 10.8065 6.20471C8.45822 6.20471 6.5541 7.79118 6.5541 9.74763C6.5541 11.7047 8.45822 13.2912 10.8065 13.2912C11.2918 13.2912 11.76 13.2224 12.1947 13.0971L12.3194 13.0783C12.4012 13.0783 12.4753 13.1035 12.5453 13.1435L13.4764 13.6812L13.5582 13.7076C13.6364 13.7076 13.7 13.6441 13.7 13.5659L13.6771 13.4624L13.4853 12.7476L13.4706 12.6571C13.4706 12.5618 13.5176 12.4776 13.5894 12.4265ZM6.04411 2.29236C3.22587 2.29236 0.941162 4.19589 0.941162 6.54471C0.941162 7.82588 1.62822 8.97942 2.7041 9.75883C2.79057 9.82001 2.84704 9.92119 2.84704 10.0359L2.8294 10.1442L2.5994 11.0018L2.57175 11.1259C2.57175 11.22 2.64822 11.2964 2.74176 11.2964L2.84058 11.2647L3.95763 10.6194C4.04116 10.5712 4.12998 10.5411 4.22822 10.5411L4.37822 10.5635C4.89939 10.7136 5.46175 10.797 6.04411 10.797L6.32411 10.79C6.21352 10.4582 6.15293 10.1089 6.15293 9.7482C6.15293 7.60648 8.23646 5.87001 10.8065 5.87001L11.0836 5.87706C10.6994 3.84588 8.5894 2.29236 6.04411 2.29236ZM9.38881 9.18118C9.07587 9.18118 8.82234 8.92706 8.82234 8.61412C8.82234 8.30059 9.07587 8.04706 9.38881 8.04706C9.70239 8.04706 9.95584 8.30059 9.95584 8.61412C9.95584 8.92706 9.70239 9.18118 9.38881 9.18118ZM12.2241 9.18118C11.9106 9.18118 11.657 8.92706 11.657 8.61412C11.657 8.30059 11.9106 8.04706 12.2241 8.04706C12.537 8.04706 12.7906 8.30059 12.7906 8.61412C12.7906 8.92706 12.537 9.18118 12.2241 9.18118ZM4.34292 5.86412C3.96704 5.86412 3.66292 5.55942 3.66292 5.18412C3.66292 4.80824 3.96704 4.50353 4.34292 4.50353C4.71881 4.50353 5.02352 4.80824 5.02352 5.18412C5.02352 5.55942 4.71881 5.86412 4.34292 5.86412ZM7.74469 5.86412C7.3688 5.86412 7.06469 5.55942 7.06469 5.18412C7.06469 4.80824 7.3688 4.50353 7.74469 4.50353C8.12057 4.50353 8.42528 4.80824 8.42528 5.18412C8.42528 5.55942 8.12057 5.86412 7.74469 5.86412Z" fill="currentColor"/>
</svg>